<svg width="306" height="8" viewBox="0 0 306 8" fill="none" xmlns="http://www.w3.org/2000/svg">
<path d="M305.354 4.35308C305.549 4.15782 305.549 3.84123 305.354 3.64597L302.172 0.463991C301.976 0.268729 301.66 0.268729 301.464 0.463991C301.269 0.659253 301.269 0.975836 301.464 1.1711L304.293 3.99953L301.464 6.82795C301.269 7.02321 301.269 7.3398 301.464 7.53506C301.66 7.73032 301.976 7.73032 302.172 7.53506L305.354 4.35308ZM-2.18557e-08 4.49951L9.53125 4.49951L9.53125 3.49951L2.18557e-08 3.49951L-2.18557e-08 4.49951ZM28.5937 4.49951L47.6562 4.49951L47.6563 3.49951L28.5938 3.49951L28.5937 4.49951ZM66.7187 4.49951L85.7812 4.49952L85.7813 3.49952L66.7188 3.49951L66.7187 4.49951ZM104.844 4.49952L123.906 4.49952L123.906 3.49952L104.844 3.49952L104.844 4.49952ZM142.969 4.49952L162.031 4.49952L162.031 3.49952L142.969 3.49952L142.969 4.49952ZM181.094 4.49952L200.156 4.49952L200.156 3.49952L181.094 3.49952L181.094 4.49952ZM219.219 4.49952L238.281 4.49952L238.281 3.49952L219.219 3.49952L219.219 4.49952ZM257.344 4.49952L276.406 4.49952L276.406 3.49952L257.344 3.49952L257.344 4.49952ZM295.469 4.49952L305 4.49953L305 3.49953L295.469 3.49952L295.469 4.49952Z" fill="#DC2F2F"/>
</svg>
