<svg width="50" height="50" viewBox="0 0 50 50" fill="none" xmlns="http://www.w3.org/2000/svg">
<rect y="0.000610352" width="50" height="50" rx="25" fill="#F7E8E8"/>
<path d="M34.4146 17.8476C34.4146 18.2099 34.4231 18.5722 34.4135 18.9335C34.372 20.3459 34.4061 21.7595 34.3752 23.1719C34.3593 23.9249 34.3635 24.681 34.2763 25.4309C34.1594 26.4338 33.9319 27.4125 33.6033 28.3703C33.1515 29.6862 32.5614 30.9348 31.7937 32.0994C31.0643 33.2074 30.1829 34.1809 29.1824 35.0588C28.0331 36.068 26.7104 36.7916 25.3282 37.427C25.1124 37.5267 24.9093 37.5236 24.6924 37.427C23.2773 36.7958 21.9387 36.047 20.7702 35.021C19.5985 33.9919 18.6129 32.8157 17.8155 31.483C17.0223 30.1556 16.4429 28.7421 16.0676 27.2466C15.8443 26.3571 15.7029 25.455 15.6614 24.5361C15.5423 21.8781 15.6029 19.2181 15.588 16.558C15.588 16.4624 15.5976 16.3647 15.5859 16.2702C15.5487 15.9667 15.7082 15.8312 15.9783 15.7073C16.1633 15.6223 16.3695 15.5992 16.5694 15.5708C17.454 15.449 18.3216 15.2516 19.1828 15.0258C20.9882 14.5532 22.6819 13.8254 24.265 12.8467C24.4256 12.7469 24.5946 12.6608 24.7584 12.5652C24.9136 12.4749 25.0678 12.4844 25.2251 12.5621C25.5058 12.7007 25.7705 12.8666 26.0395 13.0262C27.3622 13.8139 28.7657 14.4188 30.2446 14.8567C31.2738 15.1612 32.3211 15.3807 33.3779 15.5603C33.5342 15.5866 33.6916 15.6128 33.8468 15.6443C33.968 15.6695 34.085 15.7094 34.186 15.785C34.338 15.8985 34.4241 16.0308 34.4188 16.2366C34.4039 16.7733 34.4135 17.3099 34.4135 17.8455L34.4146 17.8476ZM33.2865 20.0855C33.2865 20.0855 33.2918 18.1154 33.2918 20.0855C33.2918 18.9912 33.2907 17.8959 33.2939 16.8016C33.2939 16.6934 33.2631 16.643 33.1525 16.6273C32.9516 16.5979 32.7527 16.5559 32.5529 16.5244C31.1335 16.3007 29.7704 15.8848 28.4329 15.3755C27.2761 14.9344 26.1852 14.3631 25.1188 13.7425C25.038 13.6952 24.9721 13.6858 24.887 13.7341C24.4585 13.9777 24.0311 14.2234 23.5963 14.4555C22.5915 14.9911 21.54 15.4206 20.4566 15.7724C19.2849 16.1526 18.0866 16.4288 16.8724 16.6367C16.7363 16.6598 16.7066 16.7165 16.7066 16.8426C16.7076 19.1235 16.7098 21.4045 16.7438 23.6844C16.7502 24.0898 16.7587 24.4952 16.7704 24.8995C16.7757 25.0602 16.7916 25.2208 16.8076 25.3815C16.8533 25.8425 16.9639 26.291 17.0564 26.7436C17.3264 28.0531 17.8198 29.2808 18.4428 30.4612C18.7044 30.9569 19.034 31.4116 19.3497 31.8747C19.9728 32.7905 20.7383 33.5791 21.5772 34.2985C22.5756 35.1533 23.7047 35.8076 24.8945 36.3652C24.9795 36.4051 25.0518 36.3967 25.1337 36.36C27.0209 35.4904 28.671 34.3122 30.0064 32.7232C30.7007 31.8978 31.2983 31.0083 31.7746 30.0443C32.1839 29.2167 32.522 28.3608 32.7612 27.4671C32.9516 26.7583 33.0845 26.04 33.1865 25.3143C33.2812 24.6422 33.2631 23.9659 33.2801 23.2917C33.3067 22.2236 33.2875 21.1546 33.2875 20.0865L33.2865 20.0855Z" fill="#AD1818" stroke="#AD1818" stroke-width="0.555556"/>
<path d="M20.2905 24.9997L24.0946 27.8981L29.8913 21.9202" stroke="#AD1818" stroke-width="1.66667"/>
</svg>
