<svg width="50" height="50" viewBox="0 0 50 50" fill="none" xmlns="http://www.w3.org/2000/svg">
<rect y="0.000610352" width="50" height="50" rx="25" fill="#AD1818" fill-opacity="0.1"/>
<g clip-path="url(#clip0_2004_170)">
<path d="M14.7153 27.1538C14.7153 24.0534 14.7153 20.953 14.7164 17.8526C14.7164 17.6657 14.6976 17.4799 14.712 17.2919C14.7429 16.8972 15.0659 16.5663 15.4674 16.5267C15.6421 16.5091 15.8157 16.5245 15.9894 16.5234C16.5446 16.5234 17.1009 16.5113 17.6561 16.5113C17.7734 16.5113 17.8032 16.4674 17.8032 16.3574C17.7999 15.4031 17.801 14.4488 17.8021 13.4945C17.8032 12.8546 18.156 12.5028 18.802 12.5028C22.3566 12.5017 25.9124 12.5039 29.4682 12.5006C29.6917 12.5006 29.862 12.5787 30.0179 12.7337C31.4911 14.2003 32.9676 15.6648 34.443 17.1292C34.6642 17.3491 34.8821 17.5712 35.1077 17.7856C35.2383 17.9109 35.2958 18.0505 35.2958 18.2342C35.2925 23.0057 35.2936 27.7772 35.2947 32.5499C35.2947 33.1084 34.9242 33.4789 34.3634 33.4789C33.6976 33.4789 33.0318 33.4789 32.3649 33.4789C32.1813 33.4789 32.1791 33.4789 32.1791 33.6614C32.1791 34.6201 32.1625 35.5799 32.189 36.5375C32.2045 37.1081 31.7732 37.5006 31.2323 37.5006C26.0507 37.494 20.8691 37.4973 15.6875 37.4973C15.4231 37.4973 15.1787 37.45 14.9785 37.2554C14.8015 37.0828 14.7131 36.8827 14.7142 36.6332C14.7164 33.4734 14.7164 30.3136 14.7164 27.1538H14.7153ZM26.5429 32.75C29.1243 32.75 31.7057 32.75 34.2871 32.75C34.5337 32.75 34.5371 32.7467 34.5371 32.5081C34.5371 27.8784 34.5371 23.2476 34.5382 18.6179C34.5382 18.432 34.5382 18.432 34.3446 18.432C32.8382 18.432 31.3308 18.432 29.8244 18.432C29.737 18.432 29.6507 18.4266 29.5645 18.4123C29.414 18.3881 29.3278 18.2957 29.2924 18.1572C29.2747 18.0879 29.2714 18.0132 29.2714 17.9406C29.2714 16.4432 29.2714 14.9446 29.2714 13.4472C29.2714 13.257 29.2736 13.2559 29.0867 13.2559C25.6503 13.2559 22.2151 13.2559 18.7787 13.2559C18.5631 13.2559 18.5432 13.2735 18.5409 13.4901C18.5387 13.7001 18.5542 13.9101 18.5542 14.1201C18.5476 15.4394 18.5498 16.7587 18.5443 18.078C18.5365 20.0416 18.5255 22.0041 18.5531 23.9677C18.5664 24.8934 18.5465 25.8202 18.5443 26.746C18.5398 28.6678 18.5177 30.5907 18.5575 32.5125C18.562 32.7478 18.5675 32.7511 18.7986 32.7533C18.8584 32.7533 18.9181 32.7533 18.9778 32.7533C21.4995 32.7533 24.0212 32.7533 26.544 32.7533L26.5429 32.75ZM15.4474 26.9955C15.4474 27.5255 15.4474 28.0554 15.4474 28.5842C15.4474 31.2239 15.4474 33.8626 15.4474 36.5023C15.4474 36.7409 15.4563 36.7486 15.6952 36.7519C15.7085 36.7519 15.7228 36.7519 15.7361 36.7519C20.8945 36.7519 26.0529 36.7508 31.2113 36.7497C31.4325 36.7497 31.448 36.7365 31.448 36.5177C31.448 35.559 31.4447 34.6003 31.448 33.6405C31.448 33.5218 31.406 33.4712 31.2887 33.4778C31.2566 33.48 31.2246 33.4778 31.1925 33.4778C27.1224 33.4778 23.0523 33.4778 18.9833 33.4778C18.9192 33.4778 18.855 33.4789 18.7909 33.4866C18.2821 33.546 17.8309 33.1699 17.8043 32.662C17.7999 32.5795 17.8021 32.4982 17.8021 32.4157C17.8021 27.4298 17.8021 22.4428 17.8021 17.4569C17.8021 17.3242 17.7343 17.2575 17.5986 17.2568C16.9925 17.2568 16.3864 17.2557 15.7793 17.2568C15.4718 17.2568 15.4463 17.193 15.4463 17.5822C15.4474 20.7189 15.4463 23.8567 15.4463 26.9933L15.4474 26.9955ZM30.0235 15.7274H30.0246C30.0246 16.3156 30.0246 16.9049 30.0246 17.4931C30.0246 17.6822 30.0257 17.6811 30.217 17.6811C31.2456 17.6811 32.2731 17.6811 33.3016 17.6811C33.4532 17.6811 33.6047 17.6833 33.7562 17.6811C33.8049 17.6811 33.8746 17.7053 33.8967 17.6591C33.9232 17.6064 33.8524 17.5789 33.8193 17.5459C33.6202 17.3436 33.4189 17.1446 33.2176 16.9445C32.6922 16.4223 32.1669 15.899 31.6404 15.3767C31.1427 14.8842 30.6439 14.3927 30.1462 13.9002C30.1175 13.8716 30.0965 13.8144 30.0555 13.8265C29.9991 13.843 30.0246 13.9046 30.0235 13.9464C30.0224 14.5401 30.0235 15.1327 30.0235 15.7263V15.7274Z" fill="#AD1818" stroke="#AD1818" stroke-width="0.555556"/>
<path d="M26.6153 24.4723C28.553 24.4723 30.4918 24.4723 32.4296 24.4723C32.6463 24.4723 32.7879 24.5603 32.8421 24.7241C32.9195 24.9594 32.7658 25.1892 32.5169 25.2001C32.3245 25.2089 32.1309 25.2001 31.9385 25.2034C31.5072 25.2089 31.0747 25.2331 30.6445 25.2188C29.9831 25.1968 29.3228 25.2463 28.6625 25.2188C28.2544 25.2012 27.8463 25.2078 27.4382 25.2067C26.8055 25.2067 26.1729 25.2177 25.5403 25.2188C25.2328 25.2188 24.9253 25.2023 24.6179 25.2034C23.8238 25.2056 23.0296 25.2276 22.2366 25.2155C21.7865 25.2078 21.3375 25.2386 20.8884 25.221C20.7524 25.2155 20.613 25.2177 20.4969 25.121C20.3653 25.0121 20.3233 24.9022 20.3653 24.7483C20.4062 24.601 20.5257 24.4943 20.6772 24.4767C20.7402 24.469 20.8055 24.4723 20.8696 24.4723C22.7852 24.4723 24.6997 24.4723 26.6153 24.4723Z" fill="#AD1818" stroke="#AD1818" stroke-width="0.555556"/>
<path d="M26.619 29.2593C24.6813 29.2593 22.7424 29.2593 20.8047 29.2593C20.6764 29.2593 20.5592 29.2428 20.4641 29.1449C20.2738 28.9481 20.3524 28.6326 20.6134 28.549C20.703 28.5205 20.7948 28.5271 20.8866 28.5271C24.7078 28.5271 28.529 28.5271 32.3503 28.5271C32.41 28.5271 32.4697 28.5249 32.5294 28.5315C32.723 28.5523 32.8723 28.7173 32.8668 28.902C32.8612 29.0955 32.7031 29.256 32.5018 29.2571C31.9366 29.2604 31.3715 29.2582 30.8074 29.2582C29.4116 29.2582 28.0147 29.2582 26.619 29.2582V29.2593Z" fill="#AD1818" stroke="#AD1818" stroke-width="0.555556"/>
<path d="M26.608 21.1499C24.6924 21.1499 22.7779 21.1499 20.8623 21.1499C20.8158 21.1499 20.7705 21.1499 20.724 21.1477C20.5051 21.1367 20.3734 21.0124 20.3646 20.8101C20.3569 20.6023 20.4818 20.4528 20.692 20.422C20.7373 20.4154 20.7838 20.4165 20.8291 20.4165C24.6913 20.4165 28.5534 20.4165 32.4156 20.4165C32.6645 20.4165 32.8049 20.5133 32.8514 20.7101C32.9011 20.9245 32.7507 21.1312 32.5295 21.1477C32.4565 21.1532 32.3824 21.1477 32.3094 21.1477C30.4082 21.1477 28.507 21.1477 26.6058 21.1477L26.608 21.1499Z" fill="#AD1818" stroke="#AD1818" stroke-width="0.555556"/>
<path d="M26.6175 22.4461C28.5464 22.4461 30.4753 22.4461 32.4052 22.4461C32.4694 22.4461 32.5335 22.4417 32.5966 22.4615C32.7625 22.5153 32.8797 22.6781 32.8642 22.8342C32.8465 23.0101 32.7028 23.1519 32.5192 23.1728C32.4694 23.1783 32.4185 23.1761 32.3676 23.1761C28.5232 23.1761 24.6787 23.1761 20.8342 23.1761C20.7933 23.1761 20.7513 23.1772 20.7104 23.175C20.5035 23.1629 20.3686 23.0244 20.3653 22.8221C20.362 22.6242 20.498 22.4692 20.6927 22.4483C20.7292 22.4439 20.7657 22.4461 20.8033 22.4461C22.7421 22.4461 24.6798 22.4461 26.6186 22.4461H26.6175Z" fill="#AD1818" stroke="#AD1818" stroke-width="0.555556"/>
<path d="M26.6321 26.4997C28.561 26.4997 30.4909 26.4997 32.4198 26.4997C32.5702 26.4997 32.7051 26.525 32.7925 26.6591C32.9507 26.8988 32.8069 27.1945 32.516 27.2297C32.4707 27.2352 32.4242 27.233 32.3789 27.233C28.52 27.233 24.6623 27.233 20.8035 27.2341C20.6597 27.2341 20.5292 27.2198 20.4363 27.0934C20.35 26.9757 20.3323 26.8504 20.3942 26.7196C20.4551 26.5887 20.5634 26.5184 20.7072 26.5063C20.7526 26.5019 20.799 26.5041 20.8455 26.5041C22.7743 26.5041 24.7043 26.5041 26.6332 26.5041V26.5019L26.6321 26.4997Z" fill="#AD1818" stroke="#AD1818" stroke-width="0.555556"/>
<path d="M26.6211 30.5566C28.5544 30.5566 30.4877 30.5566 32.421 30.5555C32.577 30.5555 32.7152 30.583 32.8037 30.7226C32.9552 30.9601 32.7971 31.2525 32.5018 31.2844C32.4564 31.2888 32.41 31.2866 32.3646 31.2866C28.5257 31.2866 24.6856 31.2866 20.8467 31.2866C20.8003 31.2866 20.7549 31.2888 20.7096 31.2833C20.5083 31.2624 20.3667 31.1129 20.3667 30.9227C20.3667 30.7391 20.516 30.5786 20.7118 30.561C20.8025 30.5533 20.8954 30.5566 20.9872 30.5566C22.8652 30.5566 24.7443 30.5566 26.6222 30.5566H26.6211Z" fill="#AD1818" stroke="#AD1818" stroke-width="0.555556"/>
</g>
<defs>
<clipPath id="clip0_2004_170">
<rect width="20.5882" height="25" fill="white" transform="translate(14.7061 12.5006)"/>
</clipPath>
</defs>
</svg>
