<svg width="50" height="50" viewBox="0 0 50 50" fill="none" xmlns="http://www.w3.org/2000/svg">
<rect y="0.000610352" width="50" height="50" rx="25" fill="#AD1818" fill-opacity="0.1"/>
<g clip-path="url(#clip0_2004_133)">
<path d="M25.0061 12.2265C29.9252 12.2265 34.8454 12.2265 39.7645 12.2265C40.019 12.2265 39.9975 12.2036 39.9975 12.4573C39.9975 12.6925 39.9911 12.9276 39.9997 13.1628C40.004 13.2923 39.9643 13.3337 39.8343 13.3326C38.71 13.3283 37.5868 13.3304 36.4626 13.3304C36.3215 13.3304 36.251 13.4009 36.251 13.5417C36.251 16.8383 36.251 20.1349 36.251 23.4315C36.251 23.622 36.251 23.6264 36.4422 23.6209C36.9307 23.6079 37.4097 23.6394 37.8768 23.8136C38.7723 24.1489 39.3694 24.7891 39.7538 25.6557C39.9288 26.0498 39.9997 26.4635 39.9986 26.8947C39.9954 29.0743 39.9965 31.2539 39.9975 33.4335C39.9975 34.4372 39.5712 35.2385 38.8464 35.8874C38.2397 36.4307 37.5192 36.6767 36.7074 36.6658C36.0202 36.656 35.3329 36.6767 34.6467 36.6615C33.2733 36.631 32.3048 35.9538 31.7013 34.7192C31.4919 34.2903 31.4146 33.8287 31.4146 33.3518C31.4146 31.1853 31.4146 29.0198 31.4146 26.8533C31.4146 25.9268 31.7732 25.1604 32.4283 24.53C32.9587 24.0194 33.5858 23.7058 34.3182 23.6329C34.5394 23.6111 34.7638 23.6231 34.9861 23.6209C35.1611 23.6187 35.1611 23.6209 35.1611 23.4402C35.1611 20.456 35.1611 17.4708 35.1611 14.4867C35.1611 14.1524 35.1568 13.8171 35.1633 13.4829C35.1654 13.3653 35.1321 13.3272 35.0129 13.3272C32.8009 13.3304 30.5888 13.3304 28.3757 13.3272C28.249 13.3272 28.2178 13.3696 28.2189 13.4905C28.2243 14.074 28.2082 14.6576 28.2243 15.24C28.2425 15.8944 28.0256 16.4594 27.6659 16.9863C27.0903 17.8301 26.5008 18.6651 25.8973 19.4893C25.6471 19.8311 25.543 20.2122 25.5441 20.6313C25.5441 22.3047 25.5451 23.978 25.5419 25.6514C25.5419 25.77 25.587 25.7951 25.6922 25.7929C26.0133 25.7875 26.3344 25.782 26.6555 25.7929C27.6928 25.8266 28.4605 26.3177 28.9706 27.2256C29.2004 27.635 29.2949 28.0792 29.2938 28.5517C29.2884 30.3655 29.2917 32.1782 29.2917 33.992C29.2917 35.2755 28.2447 36.4764 26.9862 36.6397C26.8616 36.656 26.7381 36.6626 26.6136 36.6626C25.543 36.6626 24.4724 36.6473 23.4018 36.6669C22.0488 36.6909 20.8665 35.5423 20.7334 34.2554C20.7194 34.1161 20.7098 33.9767 20.7098 33.8363C20.7098 32.0497 20.7098 30.2642 20.7098 28.4777C20.7098 27.6981 21.0276 27.0612 21.572 26.531C22.1079 26.0106 22.7522 25.7722 23.4931 25.7896C23.7605 25.7962 24.0289 25.7842 24.2963 25.794C24.4284 25.7983 24.4606 25.7515 24.4595 25.6241C24.4552 23.9595 24.4649 22.296 24.4531 20.6313C24.4488 19.9944 24.6313 19.4305 24.9889 18.9188C25.5741 18.0816 26.1572 17.2422 26.7542 16.4137C27.012 16.0555 27.1408 15.669 27.1355 15.227C27.1279 14.6434 27.1312 14.0599 27.1355 13.4774C27.1355 13.3686 27.1086 13.3272 26.9937 13.3272C24.2372 13.3304 21.4808 13.3294 18.7243 13.3272C18.618 13.3272 18.5858 13.362 18.5868 13.4676C18.5911 13.8563 18.5847 14.245 18.589 14.6347C18.5976 15.3674 18.3291 15.9913 17.862 16.5356C17.0051 17.535 16.1504 18.5377 15.2849 19.5296C14.9595 19.9019 14.8403 20.3319 14.8414 20.8131C14.8425 22.4277 14.8425 24.0423 14.8393 25.6568C14.8393 25.7689 14.8801 25.7951 14.981 25.7929C15.2935 25.7885 15.606 25.7885 15.9174 25.7918C16.9461 25.8038 17.6967 26.2981 18.225 27.169C18.4859 27.5991 18.5922 28.0716 18.5911 28.5789C18.5836 30.397 18.5933 32.2152 18.5868 34.0322C18.5826 35.1482 17.6999 36.4753 16.232 36.6386C16.0408 36.6604 15.8497 36.6637 15.6586 36.6637C14.6546 36.6637 13.6516 36.6647 12.6476 36.6637C11.344 36.6615 10.1682 35.5782 10.0307 34.2609C10.0125 34.0889 10.006 33.919 10.006 33.747C10.006 31.9789 9.98885 30.2109 10.0125 28.4428C10.0254 27.4532 10.4871 26.6922 11.3268 26.1772C11.7821 25.8985 12.275 25.7722 12.8076 25.7907C13.0707 25.7994 13.3338 25.7864 13.5969 25.7951C13.7225 25.7994 13.7547 25.757 13.7547 25.6329C13.7515 23.9595 13.7536 22.2862 13.7515 20.6128C13.7515 19.928 14.0028 19.3347 14.4376 18.8339C15.0186 18.1665 15.5909 17.4904 16.1665 16.8176C16.436 16.504 16.7055 16.1894 16.989 15.8889C17.338 15.5198 17.5077 15.0876 17.4991 14.577C17.4926 14.2156 17.4926 13.853 17.5012 13.4916C17.5044 13.3577 17.4593 13.325 17.3337 13.325C14.9703 13.3283 12.6057 13.3272 10.2423 13.3272C9.98134 13.3272 10.0071 13.35 10.006 13.0855C10.005 12.8503 10.0125 12.6152 10.0028 12.38C9.99959 12.2548 10.0479 12.2113 10.1671 12.2254C10.1982 12.2287 10.2294 12.2254 10.2605 12.2254C15.1754 12.2254 20.0913 12.2254 25.0061 12.2254V12.2265ZM38.9098 30.1673C38.9098 29.1189 38.9109 28.0694 38.9098 27.021C38.9098 26.8043 38.898 26.5866 38.8432 26.3754C38.6134 25.4913 37.9455 24.7412 36.7557 24.7303C35.9944 24.7227 35.232 24.7107 34.4696 24.7456C33.8682 24.7728 33.3968 25.0395 33.006 25.4837C32.6215 25.9225 32.5088 26.4548 32.5077 27.0188C32.5034 29.1113 32.5034 31.2049 32.5099 33.2974C32.5099 33.5848 32.5217 33.8776 32.6344 34.1509C32.9641 34.9566 33.6288 35.5673 34.6736 35.5608C35.4317 35.5553 36.1887 35.576 36.9468 35.5445C37.7071 35.5129 38.2397 35.1068 38.6349 34.4851C38.8604 34.1313 38.9098 33.7263 38.9109 33.3148C38.913 32.2664 38.9109 31.2168 38.9109 30.1684L38.9098 30.1673ZM21.8008 31.256C21.8008 32.0247 21.8008 32.7933 21.8008 33.5619C21.8008 33.7383 21.8051 33.9136 21.819 34.0899C21.877 34.7954 22.3516 35.3659 23.0324 35.514C23.2139 35.5532 23.404 35.5564 23.5908 35.5575C24.5991 35.5619 25.6063 35.5684 26.6147 35.5575C27.2869 35.5499 27.7787 35.2287 28.0664 34.6071C28.1867 34.348 28.2017 34.0638 28.2028 33.784C28.2071 32.2642 28.205 30.7454 28.205 29.2256C28.205 28.9273 28.2017 28.6301 28.1824 28.3318C28.1341 27.5838 27.5091 26.9545 26.7704 26.9186C25.8383 26.8729 24.9073 26.9088 23.9752 26.8979C23.7261 26.8947 23.477 26.9001 23.2268 26.9175C22.5471 26.9643 21.9586 27.488 21.8469 28.1663C21.8158 28.3525 21.804 28.5441 21.8029 28.7324C21.7986 29.574 21.8008 30.4145 21.8008 31.256ZM17.5002 31.2637C17.5002 30.617 17.5002 29.9703 17.5002 29.3236C17.5002 28.9937 17.5055 28.6638 17.4776 28.3339C17.4551 28.0716 17.3767 27.8331 17.2328 27.6121C16.901 27.1048 16.4167 26.8968 15.839 26.899C14.7383 26.9023 13.6355 26.862 12.5359 26.9208C11.9904 26.9502 11.5921 27.23 11.3139 27.7036C11.1346 28.0095 11.1002 28.3448 11.0992 28.6834C11.0949 30.4014 11.097 32.1205 11.097 33.8385C11.097 34.3491 11.2474 34.7965 11.6307 35.1493C11.97 35.4617 12.3813 35.5564 12.8183 35.5553C13.9018 35.5521 14.9864 35.5902 16.0688 35.5347C16.6658 35.5042 17.0835 35.1776 17.3477 34.6452C17.4808 34.3763 17.4969 34.078 17.4991 33.7851C17.5044 32.9435 17.5012 32.1031 17.5012 31.2615L17.5002 31.2637Z" fill="#AD1818" stroke="#AD1818" stroke-width="0.555556"/>
<path d="M36.1109 31.098C36.1109 30.9522 36.112 30.8063 36.1109 30.6615C36.1098 30.5869 36.1427 30.5551 36.2172 30.5562C36.5174 30.5573 36.8176 30.5573 37.1167 30.5562C37.1912 30.5562 37.223 30.5869 37.2219 30.6615C37.2197 30.9609 37.2197 31.2615 37.2219 31.5609C37.2219 31.6355 37.1923 31.6684 37.1167 31.6673C36.8165 31.6662 36.5163 31.6651 36.2172 31.6673C36.1306 31.6673 36.1098 31.6234 36.1109 31.5477C36.1131 31.3975 36.1109 31.2472 36.1109 31.0969V31.098Z" fill="#AD1818" stroke="#AD1818" stroke-width="0.555556"/>
<path d="M34.4574 28.3341C34.6031 28.3341 34.7477 28.3352 34.8935 28.3341C34.968 28.3341 35.0009 28.3637 34.9998 28.4393C34.9987 28.7395 34.9987 29.0386 34.9998 29.3388C34.9998 29.4133 34.9702 29.4461 34.8946 29.445C34.5943 29.4439 34.2952 29.4439 33.995 29.445C33.9204 29.445 33.8887 29.4155 33.8887 29.3399C33.8898 29.0397 33.8909 28.7406 33.8887 28.4404C33.8887 28.3538 33.9314 28.3319 34.0081 28.3341C34.1582 28.3363 34.3083 28.3341 34.4585 28.3341H34.4574Z" fill="#AD1818" stroke="#AD1818" stroke-width="0.555556"/>
<path d="M36.6795 28.3341C36.8253 28.3341 36.9699 28.3352 37.1156 28.3341C37.1901 28.3341 37.223 28.3637 37.2219 28.4393C37.2208 28.7395 37.2208 29.0386 37.2219 29.3388C37.2219 29.4133 37.1923 29.4461 37.1167 29.445C36.8165 29.4439 36.5174 29.4439 36.2171 29.445C36.1426 29.445 36.1108 29.4155 36.1108 29.3399C36.1119 29.0397 36.113 28.7406 36.1108 28.4404C36.1108 28.3538 36.1536 28.3319 36.2303 28.3341C36.3804 28.3363 36.5305 28.3341 36.6806 28.3341H36.6795Z" fill="#AD1818" stroke="#AD1818" stroke-width="0.555556"/>
<path d="M36.6675 27.2228C36.5174 27.2228 36.3673 27.2217 36.2171 27.2228C36.1426 27.2228 36.1108 27.1921 36.1108 27.1176C36.1119 26.8174 36.1119 26.5183 36.1108 26.218C36.1108 26.1435 36.1415 26.1117 36.216 26.1117C36.5163 26.1128 36.8154 26.1128 37.1157 26.1117C37.1902 26.1117 37.222 26.1424 37.222 26.2169C37.2209 26.5172 37.2209 26.8163 37.222 27.1165C37.222 27.191 37.1913 27.2239 37.1168 27.2228C36.9666 27.2206 36.8165 27.2228 36.6664 27.2228H36.6675Z" fill="#AD1818" stroke="#AD1818" stroke-width="0.555556"/>
<path d="M34.9987 31.1101C34.9987 31.2604 34.9976 31.4106 34.9987 31.5609C34.9987 31.6355 34.968 31.6673 34.8935 31.6673C34.5932 31.6662 34.2941 31.6662 33.9939 31.6673C33.9194 31.6673 33.8876 31.6366 33.8887 31.562C33.8898 31.2615 33.8898 30.962 33.8887 30.6615C33.8887 30.5869 33.9194 30.5551 33.9939 30.5562C34.2941 30.5573 34.5932 30.5573 34.8935 30.5562C34.968 30.5562 35.0009 30.5869 34.9998 30.6615C34.9976 30.8118 34.9998 30.962 34.9998 31.1123L34.9987 31.1101Z" fill="#AD1818" stroke="#AD1818" stroke-width="0.555556"/>
<path d="M34.4442 26.1118C34.5943 26.1118 34.7445 26.1129 34.8946 26.1118C34.9691 26.1118 35.0009 26.1424 34.9998 26.217C34.9987 26.5172 34.9987 26.8163 34.9998 27.1166C34.9998 27.1911 34.9691 27.2228 34.8935 27.2228C34.5932 27.2218 34.2941 27.2218 33.9939 27.2228C33.9194 27.2228 33.8876 27.1922 33.8887 27.1166C33.8898 26.8163 33.8898 26.5172 33.8887 26.217C33.8887 26.1424 33.9194 26.1107 33.995 26.1118C34.1451 26.114 34.2952 26.1118 34.4453 26.1118H34.4442Z" fill="#AD1818" stroke="#AD1818" stroke-width="0.555556"/>
<path d="M34.43 33.8895C34.2843 33.8895 34.1396 33.8884 33.9939 33.8895C33.9194 33.8895 33.8876 33.8588 33.8887 33.7832C33.8898 33.483 33.8898 33.1838 33.8887 32.8836C33.8887 32.8091 33.9194 32.7773 33.9939 32.7784C34.2941 32.7795 34.5933 32.7795 34.8935 32.7784C34.968 32.7784 34.9998 32.8091 34.9998 32.8836C34.9987 33.1838 34.9976 33.483 34.9998 33.7832C34.9998 33.8577 34.9691 33.8906 34.8946 33.8895C34.7401 33.8873 34.5856 33.8895 34.4311 33.8895H34.43Z" fill="#AD1818" stroke="#AD1818" stroke-width="0.555556"/>
<path d="M36.6522 33.8895C36.5064 33.8895 36.3618 33.8884 36.2161 33.8895C36.1415 33.8895 36.1098 33.8588 36.1109 33.7832C36.112 33.483 36.112 33.1838 36.1109 32.8836C36.1109 32.8091 36.1415 32.7773 36.2161 32.7784C36.5163 32.7795 36.8154 32.7795 37.1157 32.7784C37.1902 32.7784 37.222 32.8091 37.222 32.8836C37.2209 33.1838 37.2198 33.483 37.222 33.7832C37.222 33.8577 37.1913 33.8906 37.1168 33.8895C36.9623 33.8873 36.8078 33.8895 36.6533 33.8895H36.6522Z" fill="#AD1818" stroke="#AD1818" stroke-width="0.555556"/>
<path d="M26.6667 28.8895C26.6667 29.0396 26.6657 29.1897 26.6667 29.3398C26.6667 29.4144 26.635 29.4461 26.5605 29.445C26.2602 29.4439 25.9611 29.4439 25.6609 29.445C25.5852 29.445 25.5557 29.4133 25.5557 29.3388C25.5568 29.0385 25.5568 28.7394 25.5557 28.4391C25.5557 28.3635 25.5874 28.334 25.662 28.334C25.9622 28.335 26.2613 28.335 26.5616 28.334C26.6361 28.334 26.6678 28.3657 26.6667 28.4402C26.6646 28.5904 26.6667 28.7405 26.6667 28.8906V28.8895Z" fill="#AD1818" stroke="#AD1818" stroke-width="0.555556"/>
<path d="M24.4424 31.1238C24.4424 31.2695 24.4413 31.4142 24.4424 31.5599C24.4424 31.6333 24.4139 31.6673 24.3384 31.6673C24.0385 31.6662 23.7396 31.6662 23.4397 31.6673C23.3664 31.6673 23.3324 31.6377 23.3335 31.5621C23.3346 31.2619 23.3346 30.9627 23.3335 30.6625C23.3335 30.5891 23.3631 30.5551 23.4386 30.5562C23.7385 30.5573 24.0374 30.5584 24.3373 30.5562C24.4238 30.5562 24.4457 30.5989 24.4446 30.6745C24.4424 30.8247 24.4446 30.9748 24.4446 31.1249L24.4424 31.1238Z" fill="#AD1818" stroke="#AD1818" stroke-width="0.555556"/>
<path d="M24.4424 28.9016C24.4424 29.0473 24.4413 29.1919 24.4424 29.3377C24.4424 29.4111 24.4139 29.4451 24.3384 29.4451C24.0385 29.444 23.7396 29.444 23.4397 29.4451C23.3664 29.4451 23.3324 29.4155 23.3335 29.3399C23.3346 29.0396 23.3346 28.7405 23.3335 28.4403C23.3335 28.3669 23.3631 28.3329 23.4386 28.334C23.7385 28.3351 24.0374 28.3362 24.3373 28.334C24.4238 28.334 24.4457 28.3767 24.4446 28.4523C24.4424 28.6024 24.4446 28.7526 24.4446 28.9027L24.4424 28.9016Z" fill="#AD1818" stroke="#AD1818" stroke-width="0.555556"/>
<path d="M26.6645 31.1238C26.6645 31.2695 26.6635 31.4142 26.6645 31.5599C26.6645 31.6333 26.6361 31.6673 26.5606 31.6673C26.2606 31.6662 25.9618 31.6662 25.6619 31.6673C25.5885 31.6673 25.5546 31.6377 25.5557 31.5621C25.5568 31.2619 25.5568 30.9627 25.5557 30.6625C25.5557 30.5891 25.5852 30.5551 25.6608 30.5562C25.9607 30.5573 26.2595 30.5584 26.5595 30.5562C26.6459 30.5562 26.6678 30.5989 26.6667 30.6745C26.6645 30.8247 26.6667 30.9748 26.6667 31.1249L26.6645 31.1238Z" fill="#AD1818" stroke="#AD1818" stroke-width="0.555556"/>
<path d="M23.8787 33.8883C23.7374 33.8883 23.5973 33.8861 23.4561 33.8883C23.3718 33.8905 23.3324 33.861 23.3335 33.7713C23.3368 33.4815 23.3368 33.1907 23.3335 32.9009C23.3335 32.8167 23.3609 32.7773 23.4506 32.7784C23.7407 32.7817 24.0319 32.7817 24.322 32.7784C24.4063 32.7784 24.4457 32.8047 24.4446 32.8954C24.4413 33.1852 24.4413 33.4761 24.4446 33.7658C24.4457 33.8632 24.403 33.8916 24.3132 33.8894C24.1676 33.885 24.0231 33.8883 23.8776 33.8883H23.8787Z" fill="#AD1818" stroke="#AD1818" stroke-width="0.555556"/>
<path d="M26.6666 33.3203C26.6666 33.4703 26.6644 33.6202 26.6666 33.7702C26.6687 33.8578 26.6315 33.8895 26.5451 33.8895C26.255 33.8862 25.9639 33.8862 25.6739 33.8895C25.5852 33.8895 25.5546 33.8545 25.5557 33.768C25.559 33.4779 25.559 33.1867 25.5557 32.8967C25.5557 32.808 25.5907 32.7773 25.6772 32.7784C25.9672 32.7817 26.2583 32.7817 26.5484 32.7784C26.637 32.7784 26.6698 32.8135 26.6666 32.8999C26.6633 33.0401 26.6666 33.1813 26.6666 33.3225V33.3203Z" fill="#AD1818" stroke="#AD1818" stroke-width="0.555556"/>
<path d="M16.1111 28.9038C16.1111 29.0495 16.11 29.1941 16.1111 29.3398C16.1111 29.4144 16.0804 29.4461 16.0048 29.445C15.7046 29.4439 15.4054 29.4439 15.1052 29.445C15.0307 29.445 14.9989 29.4133 15 29.3388C15.0011 29.0385 15.0011 28.7394 15 28.4392C15 28.3647 15.0318 28.3329 15.1063 28.334C15.4065 28.3351 15.7057 28.3351 16.0059 28.334C16.0804 28.334 16.1122 28.3647 16.1111 28.4403C16.1089 28.5948 16.1111 28.7493 16.1111 28.9038Z" fill="#AD1818" stroke="#AD1818" stroke-width="0.555556"/>
<path d="M13.8889 28.9038C13.8889 29.0495 13.8878 29.1941 13.8889 29.3398C13.8889 29.4144 13.8582 29.4461 13.7826 29.445C13.4824 29.4439 13.1833 29.4439 12.883 29.445C12.8085 29.445 12.7768 29.4133 12.7779 29.3388C12.779 29.0385 12.779 28.7394 12.7779 28.4392C12.7779 28.3647 12.8096 28.3329 12.8841 28.334C13.1844 28.3351 13.4835 28.3351 13.7837 28.334C13.8582 28.334 13.89 28.3647 13.8889 28.4403C13.8867 28.5948 13.8889 28.7493 13.8889 28.9038Z" fill="#AD1818" stroke="#AD1818" stroke-width="0.555556"/>
<path d="M13.8877 31.1128C13.8877 31.2583 13.8845 31.4026 13.8877 31.5481C13.8899 31.6366 13.8538 31.6684 13.7675 31.6673C13.4777 31.664 13.1868 31.664 12.897 31.6673C12.8085 31.6673 12.7768 31.6323 12.7779 31.5459C12.7811 31.2561 12.7811 30.9652 12.7779 30.6754C12.7779 30.5868 12.8129 30.5562 12.8992 30.5562C13.189 30.5595 13.4799 30.5595 13.7697 30.5562C13.8582 30.5562 13.891 30.5901 13.8888 30.6765C13.8856 30.8219 13.8888 30.9663 13.8877 31.1117V31.1128Z" fill="#AD1818" stroke="#AD1818" stroke-width="0.555556"/>
<path d="M15.5572 30.5563C15.7028 30.5563 15.8473 30.5596 15.9929 30.5563C16.0815 30.5541 16.1122 30.5913 16.1111 30.6778C16.1078 30.9678 16.1078 31.259 16.1111 31.5491C16.1111 31.6377 16.0761 31.6684 15.9896 31.6673C15.6995 31.664 15.4083 31.664 15.1182 31.6673C15.0296 31.6673 14.9989 31.6311 15 31.5458C15.0033 31.2557 15.0033 30.9646 15 30.6745C15 30.5858 15.0362 30.5541 15.1215 30.5563C15.2671 30.5596 15.4116 30.5563 15.5572 30.5574V30.5563Z" fill="#AD1818" stroke="#AD1818" stroke-width="0.555556"/>
<path d="M13.3405 32.7795C13.4861 32.7795 13.6306 32.7817 13.7762 32.7795C13.8583 32.7773 13.8889 32.8112 13.8889 32.8922C13.8868 33.1874 13.8868 33.4816 13.8889 33.7769C13.8889 33.8578 13.8572 33.8895 13.7762 33.8895C13.4806 33.8873 13.1862 33.8873 12.8906 33.8895C12.8085 33.8895 12.7778 33.8567 12.7778 33.7758C12.78 33.4805 12.78 33.1863 12.7778 32.8911C12.7778 32.8091 12.8107 32.7773 12.8906 32.7784C13.0406 32.7817 13.1905 32.7784 13.3405 32.7784V32.7795Z" fill="#AD1818" stroke="#AD1818" stroke-width="0.555556"/>
<path d="M15.5649 32.7785C15.7061 32.7785 15.8462 32.7807 15.9874 32.7785C16.0717 32.7763 16.1122 32.8037 16.1111 32.8945C16.1078 33.1901 16.1089 33.4845 16.1111 33.78C16.1111 33.8643 16.0739 33.8906 15.9951 33.8895C15.6995 33.8873 15.405 33.8873 15.1095 33.8895C15.0252 33.8895 14.9989 33.8523 15 33.7735C15.0022 33.4779 15.0022 33.1835 15 32.888C15 32.8037 15.0373 32.7763 15.1161 32.7785C15.266 32.7807 15.416 32.7785 15.566 32.7785H15.5649Z" fill="#AD1818" stroke="#AD1818" stroke-width="0.555556"/>
</g>
<defs>
<clipPath id="clip0_2004_133">
<rect width="31.5789" height="25" fill="white" transform="translate(9.21045 12.5006)"/>
</clipPath>
</defs>
</svg>
