<svg width="12" height="119" viewBox="0 0 12 119" fill="none" xmlns="http://www.w3.org/2000/svg">
<path d="M5.46966 117.864C5.76256 118.156 6.23743 118.156 6.53032 117.864L11.3033 113.091C11.5962 112.798 11.5962 112.323 11.3033 112.03C11.0104 111.737 10.5355 111.737 10.2426 112.03L5.99999 116.273L1.75735 112.03C1.46446 111.737 0.989588 111.737 0.696694 112.03C0.403801 112.323 0.403801 112.798 0.696694 113.091L5.46966 117.864ZM5.25 0.333252L5.25 5.20825L6.75 5.20825L6.75 0.333252L5.25 0.333252ZM5.25 14.9583L5.25 24.7083L6.75 24.7083L6.75 14.9583L5.25 14.9583ZM5.25 34.4583L5.25 44.2083L6.75 44.2083L6.75 34.4583L5.25 34.4583ZM5.25 53.9583L5.25 63.7083L6.75 63.7083L6.75 53.9583L5.25 53.9583ZM5.25 73.4583L5.25 83.2083L6.75 83.2083L6.75 73.4583L5.25 73.4583ZM5.25 92.9583L5.25 102.708L6.75 102.708L6.75 92.9583L5.25 92.9583ZM5.25 112.458L5.24999 117.333L6.74999 117.333L6.75 112.458L5.25 112.458Z" fill="#DC2F2F"/>
</svg>
