<svg width="12" height="52" viewBox="0 0 12 52" fill="none" xmlns="http://www.w3.org/2000/svg">
<path d="M5.46967 51.5303C5.76256 51.8232 6.23743 51.8232 6.53033 51.5303L11.3033 46.7574C11.5962 46.4645 11.5962 45.9896 11.3033 45.6967C11.0104 45.4038 10.5355 45.4038 10.2426 45.6967L6 49.9393L1.75736 45.6967C1.46446 45.4038 0.989591 45.4038 0.696697 45.6967C0.403804 45.9896 0.403804 46.4645 0.696697 46.7574L5.46967 51.5303ZM5.25 -3.27835e-08L5.25 4.25L6.75 4.25L6.75 3.27835e-08L5.25 -3.27835e-08ZM5.25 12.75L5.25 21.25L6.75 21.25L6.75 12.75L5.25 12.75ZM5.25 29.75L5.25 38.25L6.75 38.25L6.75 29.75L5.25 29.75ZM5.25 46.75L5.25 51L6.75 51L6.75 46.75L5.25 46.75Z" fill="#DC2F2F"/>
</svg>
