<svg width="50" height="50" viewBox="0 0 50 50" fill="none" xmlns="http://www.w3.org/2000/svg">
<rect y="0.000610352" width="50" height="50" rx="25" fill="#AD1818" fill-opacity="0.1"/>
<path d="M37.5003 25.0265C37.5003 25.8579 37.5003 26.6892 37.5003 27.5218C37.5003 27.9616 37.205 28.2605 36.7714 28.2618C35.7918 28.2618 34.8121 28.2618 33.8312 28.2655C33.7275 28.2655 33.5854 28.2099 33.5471 28.3791C33.5076 28.557 33.3272 28.7139 33.5421 28.919C34.2191 29.5663 34.8739 30.2383 35.5472 30.8905C35.9746 31.3043 35.9709 31.7231 35.5311 32.127C34.5687 33.0152 33.678 33.975 32.7478 34.8953C32.4501 35.1893 32.1882 35.5216 31.8373 35.76C31.6001 35.9219 31.3419 35.9243 31.1171 35.739C30.5945 35.3079 30.1683 34.7767 29.6754 34.3147C29.4073 34.064 29.1516 33.7996 28.9008 33.5316C28.7514 33.3722 28.6093 33.4599 28.4598 33.5093C28.3079 33.5587 28.277 33.6712 28.2757 33.8182C28.2733 34.7817 28.2387 35.7452 28.2708 36.7075C28.2881 37.2152 27.9125 37.5043 27.4653 37.5006C26.5759 37.4944 25.6864 37.4993 24.7969 37.4993C24.0643 37.4993 23.3318 37.5018 22.598 37.4969C22.4028 37.4956 22.2063 37.4845 22.0297 37.3795C21.832 37.2622 21.732 37.104 21.7332 36.8644C21.7394 35.8515 21.7344 34.8385 21.7369 33.8256C21.7369 33.6971 21.7431 33.5711 21.5862 33.5328C21.4231 33.4933 21.2699 33.371 21.0933 33.5513C20.4533 34.2073 19.7986 34.8496 19.15 35.4969C19.029 35.618 18.9153 35.7526 18.7559 35.8193C18.4372 35.9527 18.1753 35.8477 17.9418 35.613C17.0993 34.7632 16.2531 33.917 15.4068 33.0696C15.0893 32.7521 14.778 32.4272 14.4519 32.1196C13.9466 31.6416 14.0615 31.3018 14.4618 30.8917C15.0646 30.2728 15.6749 29.6589 16.2975 29.0585C16.4804 28.8831 16.6311 28.7473 16.5001 28.4656C16.4297 28.3149 16.3581 28.2568 16.1925 28.2581C15.2042 28.2655 14.2159 28.2433 13.2289 28.2692C12.752 28.2815 12.5 27.9505 12.5 27.5465C12.5 25.8418 12.5012 24.1384 12.5 22.4336C12.5 22.0186 12.8249 21.7258 13.1795 21.7271C14.1678 21.7283 15.1548 21.7196 16.1431 21.7221C16.3037 21.7221 16.4297 21.7098 16.4989 21.5356C16.5681 21.3589 16.5854 21.2218 16.426 21.0662C15.7651 20.4201 15.1153 19.7605 14.468 19.102C14.3506 18.9835 14.2258 18.8698 14.1678 18.6969C14.0862 18.4523 14.1233 18.2485 14.3049 18.0681C15.0152 17.359 15.7268 16.6524 16.4334 15.9397C16.9263 15.4431 17.4156 14.944 17.8998 14.44C18.3359 13.9854 18.7559 14.0793 19.1401 14.4796C19.5676 14.9255 20 15.3677 20.4348 15.8087C20.6535 16.0311 20.8919 16.2349 21.1007 16.4659C21.2996 16.6858 21.4676 16.4733 21.6442 16.4486C21.8036 16.4264 21.7332 16.2757 21.7332 16.183C21.7381 15.1874 21.7357 14.1905 21.7369 13.1948C21.7369 12.8144 22.0272 12.5056 22.4127 12.5043C24.1249 12.4994 25.8383 12.4994 27.5506 12.5043C27.9632 12.5056 28.2387 12.8057 28.2597 13.2171C28.3103 14.2288 28.3116 15.2405 28.2646 16.2522C28.2597 16.3683 28.2992 16.4239 28.4042 16.477C28.6525 16.6018 28.8292 16.5647 29.0281 16.3535C29.647 15.6963 30.2919 15.0614 30.9244 14.4166C31.2789 14.0559 31.6879 14.0509 32.0375 14.403C33.2172 15.5901 34.397 16.7772 35.578 17.9631C35.9783 18.3658 35.9474 18.7179 35.5385 19.1107C34.8442 19.7778 34.1771 20.472 33.4977 21.1539C33.4433 21.2082 33.3457 21.2552 33.4285 21.3503C33.5286 21.4652 33.4705 21.6999 33.6966 21.7172C33.8189 21.7271 33.9436 21.7246 34.0659 21.7246C34.9875 21.7283 35.9104 21.7246 36.832 21.7394C37.2149 21.7456 37.4978 22.0668 37.4991 22.4583C37.5003 23.3144 37.4991 24.1705 37.4991 25.0278L37.5003 25.0265ZM36.1661 25.0265C36.1661 24.4422 36.1587 23.8567 36.171 23.2724C36.1747 23.0982 36.1167 23.0377 35.9524 23.0389C35.4916 23.0414 35.0308 23.0377 34.5687 23.0389C34.124 23.0389 33.6793 23.0476 33.2345 23.0439C32.8454 23.0402 32.6119 22.8919 32.5156 22.6066C32.3933 22.2459 32.2672 21.8889 32.0832 21.5516C31.8793 21.1798 31.9263 20.8908 32.2252 20.5856C32.8578 19.9408 33.4853 19.2923 34.1401 18.6722C34.3204 18.5017 34.2303 18.4399 34.1203 18.33C33.3395 17.5517 32.5588 16.7735 31.7805 15.9928C31.4754 15.6877 31.4865 15.6902 31.1875 15.9965C30.5723 16.6277 29.9534 17.2565 29.3246 17.8766C29.1504 18.0483 28.9293 18.1323 28.6772 18.0137C28.2881 17.8322 27.9027 17.6345 27.4888 17.5209C27.0898 17.4109 26.9564 17.1293 26.9514 16.7747C26.9391 15.8779 26.9428 14.9799 26.9601 14.083C26.9638 13.8817 26.9156 13.831 26.7204 13.8323C25.5764 13.8397 24.4313 13.8409 23.2861 13.8323C23.0612 13.8298 23.0118 13.9101 23.0143 14.1201C23.0242 15.0342 23.0192 15.9483 23.0192 16.8624C23.0192 17.154 22.8413 17.3986 22.5782 17.4937C22.2286 17.6209 21.879 17.7445 21.5504 17.926C21.1872 18.1274 20.8697 18.0928 20.6139 17.8396C19.9654 17.1947 19.318 16.5512 18.6781 15.8977C18.5484 15.7655 18.4545 15.6963 18.3137 15.8705C18.2383 15.9644 18.1444 16.0434 18.0592 16.1287C17.3155 16.8785 16.5743 17.632 15.8256 18.3769C15.7182 18.4844 15.7058 18.5375 15.8293 18.64C16.0171 18.7957 16.1864 18.9748 16.3593 19.1478C16.8053 19.5912 17.2513 20.0347 17.691 20.4843C17.9678 20.7672 18.1432 21.0662 17.9295 21.4874C17.7466 21.8469 17.5996 22.2273 17.4773 22.6152C17.3921 22.8845 17.0697 23.0636 16.783 23.0575C15.8775 23.0377 14.972 23.0328 14.0665 23.0575C13.8811 23.0624 13.8169 23.1081 13.8181 23.3058C13.828 24.4583 13.828 25.6108 13.8194 26.7646C13.8194 26.9388 13.8651 26.987 14.038 26.9857C14.9683 26.9783 15.8985 26.982 16.83 26.9832C17.1623 26.9832 17.3921 27.155 17.4983 27.4786C17.5972 27.78 17.7293 28.0666 17.8529 28.3581C18.1012 28.9424 18.158 29.0721 17.6317 29.5885C17.0375 30.1703 16.4359 30.7435 15.8577 31.3426C15.7194 31.4859 15.7392 31.5538 15.8602 31.6737C16.7052 32.5112 17.5477 33.3512 18.3829 34.1986C18.5039 34.3222 18.5459 34.2517 18.6275 34.169C19.2748 33.5155 19.9246 32.8645 20.5756 32.2147C20.8091 31.9825 21.134 31.8985 21.3539 32.0121C21.7369 32.211 22.1335 32.3778 22.5411 32.5174C22.8364 32.6174 23.0155 32.8657 23.0155 33.1783C23.0155 34.101 23.0205 35.0226 23.0106 35.9453C23.0081 36.1294 23.0538 36.1825 23.2416 36.1813C24.3942 36.1726 25.5468 36.1714 26.7006 36.1813C26.8995 36.1825 26.9477 36.1257 26.9465 35.9305C26.9366 35.0411 26.9403 34.1517 26.9465 33.2635C26.9502 32.8361 27.1268 32.6211 27.516 32.4828C27.8829 32.3531 28.2498 32.2184 28.6006 32.0517C28.907 31.9071 29.1627 31.9652 29.3814 32.1826C30.0497 32.846 30.7144 33.5143 31.3605 34.1999C31.4902 34.337 31.5297 34.2826 31.6187 34.1937C31.8682 33.9442 32.1264 33.702 32.3747 33.4513C32.9763 32.8423 33.5656 32.2184 34.1821 31.6243C34.3217 31.4896 34.2216 31.4476 34.1648 31.3896C33.5026 30.7324 32.8306 30.0851 32.1758 29.4217C31.9843 29.2265 31.8732 28.9857 32.0016 28.6904C32.1659 28.3124 32.3068 27.9233 32.4649 27.5416C32.6687 27.0487 32.7663 26.987 33.3074 26.987C34.1635 26.987 35.0209 26.9771 35.877 26.9931C36.1228 26.9981 36.176 26.9202 36.1686 26.6892C36.1513 26.1383 36.1636 25.5861 36.1636 25.0339L36.1661 25.0265Z" fill="#AD1818" stroke="#AD1818" stroke-width="0.555556"/>
<path d="M24.9948 30.2395C22.0694 30.2963 19.9162 27.801 19.7531 25.3601C19.5394 22.1693 22.2387 19.6827 25.0591 19.7518C27.8844 19.8198 30.255 22.0865 30.2489 25.0636C30.2439 27.8122 27.9313 30.284 24.9948 30.2395ZM28.9147 24.9895C29.0444 22.9364 27.0702 20.7808 24.5143 21.0946C22.702 21.3182 20.9514 22.7882 21.0676 25.2032C21.1689 27.3094 22.7341 29.0055 25.1986 28.9387C27.2247 28.8844 28.9702 27.1809 28.9147 24.9895Z" fill="#AD1818" stroke="#AD1818" stroke-width="0.555556"/>
</svg>
