<svg width="50" height="50" viewBox="0 0 50 50" fill="none" xmlns="http://www.w3.org/2000/svg">
<rect y="0.000610352" width="50" height="50" rx="25" fill="#AD1818" fill-opacity="0.1"/>
<path d="M24.985 37.4979C21.3407 37.4979 17.6974 37.4979 14.053 37.4979C13.4432 37.4979 13.3338 37.3896 13.3338 36.7873C13.3338 36.3232 13.3327 35.8601 13.3349 35.396C13.3371 34.9429 13.4745 34.8092 13.9391 34.8092C17.0474 34.8092 20.1557 34.8058 23.2639 34.8147C23.5387 34.8147 23.637 34.7705 23.6336 34.4633C23.6213 33.546 23.6437 32.6277 23.6414 31.7115C23.6381 30.634 23.6359 29.5543 23.6269 28.4769C23.6247 28.2658 23.5432 28.1951 23.3354 28.1995C22.7044 28.2127 22.0733 28.2094 21.4423 28.2205C21.0134 28.2282 20.847 28.0801 20.8459 27.6569C20.8448 26.7672 20.8459 25.8776 20.8448 24.988C20.8448 24.9317 20.8448 24.504 20.8448 24.504C20.8335 22.7784 21.1743 24.3013 21.277 24.0372C21.3753 23.7819 20.5557 23.6117 21.277 23.6807C21.6069 23.6512 21.7718 23.4685 21.7718 23.1325C21.7718 23.0662 21.7651 22.9999 21.7718 22.9336C21.7964 22.7026 21.7025 22.6175 21.4624 22.6164C20.9509 22.6153 20.8459 22.4971 20.8448 21.9909C20.8448 20.467 20.837 18.9441 20.8504 17.4202C20.8526 17.1329 20.7699 17.0445 20.4784 17.05C19.5514 17.0666 18.6233 17.0577 17.6952 17.0566C17.2227 17.0566 17.0742 16.9118 17.0731 16.4477C17.0708 15.3315 17.0708 14.2143 17.0731 13.0981C17.0731 12.6527 17.225 12.5024 17.6807 12.5024C22.5882 12.5002 27.4947 12.5002 32.4011 12.5013C32.8278 12.5013 32.9238 12.5964 32.926 13.0241C32.9305 14.1789 32.9294 15.3326 32.926 16.4875C32.9249 16.9019 32.7686 17.0522 32.3486 17.0533C31.3926 17.0566 30.4354 17.0621 29.4794 17.0511C29.2292 17.0478 29.1499 17.1284 29.151 17.3771C29.1599 18.9198 29.1566 20.4626 29.1555 22.0042C29.1555 22.486 29.0371 22.6186 28.5501 22.6142C28.2932 22.612 28.1994 22.706 28.2307 22.9469C28.2352 22.9844 28.2307 23.022 28.2307 23.0607C28.2374 23.2397 28.1916 23.4453 28.2664 23.59C28.3602 23.7724 28.597 23.6486 28.7679 23.6818C28.9902 23.7249 29.1264 23.8376 29.1577 24.0708C29.2102 24.4675 29.1834 24.8642 29.1867 25.2621C29.1912 25.9716 29.1878 26.6799 29.1867 27.3894C29.1867 27.4933 29.1867 27.5983 29.1756 27.7011C29.1342 28.0923 28.9969 28.2094 28.6004 28.2072C27.9693 28.2039 27.3383 28.2116 26.7073 28.1962C26.4593 28.1906 26.3778 28.2713 26.3711 28.52C26.3186 30.5069 26.3577 32.4939 26.3365 34.4809C26.3342 34.7506 26.4269 34.8147 26.6838 34.8136C29.782 34.8069 32.8814 34.8092 35.9796 34.8092C36.5604 34.8092 36.6642 34.9119 36.6653 35.4866C36.6653 35.9784 36.6687 36.4712 36.6653 36.963C36.662 37.3288 36.5134 37.4846 36.146 37.4946C35.773 37.5056 35.3999 37.4979 35.0269 37.499C31.6796 37.499 28.3323 37.499 24.985 37.499V37.4979ZM26.2225 16.2311C26.2225 16.2234 26.2225 16.2156 26.2225 16.2079C26.8055 16.2079 27.3874 16.2057 27.9705 16.2079C29.2303 16.2134 30.4901 16.2167 31.75 16.2344C32.008 16.2377 32.0962 16.1659 32.1007 15.8996C32.1129 15.2 32.0404 14.5027 32.0895 13.8021C32.1196 13.3711 32.0928 13.3567 31.6528 13.3567C28.7947 13.3567 25.9366 13.3567 23.0796 13.3545C22.5078 13.3545 21.936 13.3357 21.3641 13.3324C20.2841 13.3269 19.2041 13.3269 18.1241 13.3213C17.9643 13.3213 17.9029 13.3876 17.904 13.5424C17.9085 14.2795 17.8985 15.0177 17.9119 15.7548C17.9208 16.2189 17.9364 16.2278 18.4279 16.2278C19.2856 16.2289 20.1445 16.2112 21.0034 16.2223C22.7423 16.2455 24.4824 16.2289 26.2214 16.2289L26.2225 16.2311ZM25.0007 17.0555C24.0067 17.0555 23.0138 17.0621 22.0197 17.0511C21.7584 17.0478 21.6713 17.1318 21.6735 17.3926C21.6835 18.7541 21.6835 20.1156 21.6735 21.476C21.6713 21.7224 21.7483 21.8075 22.0019 21.8009C22.9211 21.7788 23.8414 21.7445 24.7605 21.7732C25.8406 21.8064 26.9195 21.7743 27.9984 21.8009C28.2497 21.8075 28.329 21.7257 28.3279 21.4771C28.3178 20.1156 28.3178 18.7541 28.3279 17.3937C28.3301 17.134 28.2452 17.0478 27.9827 17.0511C26.9887 17.0632 25.9958 17.0555 25.0018 17.0555H25.0007ZM25.0063 35.6336C21.611 35.6336 18.2168 35.6314 14.8215 35.6358C14.0642 35.6358 14.1781 35.5275 14.1692 36.279C14.1647 36.6735 14.1692 36.6768 14.5556 36.6735C15.744 36.6657 16.9324 36.647 18.1196 36.6127C18.678 36.5961 19.2599 36.6635 19.8273 36.6657C24.9437 36.6801 30.059 36.6746 35.1754 36.6746C35.614 36.6746 35.8329 36.4613 35.8322 36.0347C35.8322 35.768 35.6948 35.6343 35.42 35.6336C31.9488 35.6336 28.4775 35.6336 25.0063 35.6336ZM25.0252 24.504C24.0223 24.504 23.0182 24.5117 22.0153 24.4984C21.7461 24.4951 21.6679 24.5858 21.6735 24.8421C21.688 25.4466 21.6724 26.0522 21.6791 26.6578C21.6891 27.4889 21.5451 27.3607 22.4341 27.3828C22.691 27.3894 22.7692 27.2911 22.7602 27.049C22.7468 26.6998 22.7491 26.3495 22.7636 26.0003C22.7759 25.7085 22.9613 25.5328 23.2059 25.545C23.4437 25.5571 23.58 25.7229 23.5867 26.0191C23.5912 26.2456 23.5845 26.4733 23.5889 26.6998C23.6057 27.5066 23.4449 27.3618 24.316 27.3817C24.5126 27.3861 24.5897 27.311 24.5852 27.1154C24.5763 26.7374 24.5763 26.3584 24.5874 25.9804C24.5952 25.7119 24.7516 25.556 24.985 25.5483C25.233 25.5406 25.3983 25.6997 25.4117 25.9793C25.4229 26.2147 25.4117 26.4523 25.4173 26.6888C25.4329 27.4789 25.2754 27.3629 26.1421 27.3828C26.3666 27.3883 26.4191 27.2933 26.4135 27.0955C26.4035 26.7363 26.4079 26.3771 26.4135 26.018C26.4169 25.7218 26.5543 25.5605 26.7977 25.5505C27.0446 25.5406 27.2199 25.713 27.2389 26.0069C27.2523 26.2147 27.2411 26.4224 27.2456 26.6313C27.2624 27.4789 27.0803 27.3684 28.0308 27.3828C28.262 27.3861 28.3279 27.2889 28.3256 27.0767C28.3189 26.3296 28.3122 25.5826 28.3267 24.8355C28.3323 24.5692 28.234 24.4973 27.9772 24.5007C26.9932 24.5128 26.0081 24.5051 25.0241 24.5062L25.0252 24.504ZM25.004 23.6785C25.568 23.6785 26.1321 23.6785 26.6972 23.6785C27.1656 23.6785 27.3986 23.4501 27.3964 22.9933C27.3941 22.6231 27.3941 22.622 27.0055 22.622C25.7903 22.622 24.5763 22.6164 23.3611 22.622C22.4598 22.6264 22.6318 22.5015 22.6005 23.3679C22.5916 23.6287 22.6977 23.6873 22.9378 23.6829C23.6258 23.6707 24.3149 23.6785 25.004 23.6785Z" fill="#AD1818" stroke="#AD1818" stroke-width="0.555556"/>
</svg>
