<svg width="50" height="50" viewBox="0 0 50 50" fill="none" xmlns="http://www.w3.org/2000/svg">
<rect y="0.000610352" width="50" height="50" rx="25" fill="#AD1818" fill-opacity="0.1"/>
<g clip-path="url(#clip0_65_148)">
<path d="M18.0605 35.5548C17.6386 35.5835 17.2079 35.1403 17.2225 34.7034C17.2367 34.2983 17.6046 33.8869 18.0521 33.8895C18.4892 33.8921 18.921 34.2404 18.8869 34.8129C18.8676 35.1372 18.497 35.5809 18.0605 35.5548ZM17.7742 34.7201C17.7726 34.8703 17.9134 35.0105 18.0642 35.0084C18.2018 35.0063 18.3379 34.8723 18.34 34.7368C18.3421 34.5845 18.2139 34.4505 18.0642 34.449C17.904 34.4474 17.7758 34.5678 17.7747 34.7206L17.7742 34.7201Z" fill="#AD1818" stroke="#AD1818" stroke-width="0.555556"/>
<path d="M13.3335 28.3939C13.3335 28.1123 13.6885 28.0936 13.9455 28.099C14.4645 28.1099 14.9836 28.1053 15.5035 28.1045C15.7312 28.1045 15.7252 28.1014 15.7334 27.8697C15.7387 27.7347 15.6975 27.5975 15.7866 27.4633C15.8765 27.3284 15.9926 27.2714 16.1364 27.2714C17.4547 27.2691 18.773 27.2714 20.0906 27.2691C20.3205 27.2691 20.5198 27.4836 20.4988 27.7004C20.4786 27.9064 20.4966 28.1162 20.4928 28.3237C20.4913 28.4063 20.5175 28.4391 20.5977 28.4196C21.0913 28.2979 21.5954 28.2308 22.0928 28.1279C22.4823 28.0475 22.8733 27.9625 23.271 27.9181C23.5534 27.8869 23.8365 27.8252 24.1137 27.7558C24.4455 27.6723 24.7534 27.7527 25.065 27.8299C25.4043 27.9134 25.7399 28.0171 26.0762 28.1123C26.4792 28.2262 26.8821 28.34 27.2851 28.4539C27.6222 28.5483 27.9593 28.6411 28.2963 28.7371C28.709 28.8541 29.1263 28.9555 29.5352 29.0889C29.7884 29.1715 30.0498 29.2261 30.306 29.2979C30.5547 29.3673 30.7809 29.4843 30.9697 29.6707C31.0191 29.7199 31.0483 29.7308 31.1255 29.6809C31.5899 29.3853 32.0647 29.106 32.5366 28.8229C33.0003 28.5452 33.464 28.2683 33.9284 27.9922C34.2909 27.7769 34.6392 27.5288 35.0205 27.358C35.4676 27.1568 35.9268 27.1786 36.3725 27.4344C36.7874 27.6723 37.0526 28.0304 37.1687 28.489C37.3148 29.067 37.1567 29.5842 36.768 30.0217C36.5335 30.2854 36.2204 30.4375 35.9388 30.6333C35.4646 30.964 34.9838 31.2846 34.5044 31.6067C33.9651 31.9687 33.4243 32.3275 32.8842 32.6878C32.4056 33.0076 31.9269 33.3282 31.4498 33.6496C31.0258 33.9343 30.6026 34.2206 30.1794 34.5076C29.8641 34.7213 29.554 34.9444 29.2334 35.1496C28.7338 35.4686 28.2649 35.8375 27.7435 36.1207C27.5031 36.2517 27.2492 36.3219 26.9773 36.3297C26.6125 36.3399 26.2537 36.2736 25.8927 36.2416C25.4777 36.2049 25.0635 36.1542 24.6515 36.0965C24.1601 36.0271 23.665 35.9974 23.1744 35.9218C22.8411 35.8703 22.5032 35.8547 22.1684 35.8165C21.907 35.7868 21.6471 35.7439 21.3857 35.7127C21.119 35.6807 20.8516 35.6589 20.5857 35.6285C20.4891 35.6176 20.4958 35.6792 20.4958 35.7439C20.4958 36.0349 20.4823 36.3274 20.5011 36.6168C20.5183 36.8812 20.4614 37.0902 20.2277 37.2228H16.033C15.9229 37.1573 15.8128 37.0957 15.7596 36.9623C15.7095 36.8367 15.7304 36.7057 15.7379 36.5801C15.7469 36.4381 15.7005 36.3929 15.5701 36.3937C15.0024 36.396 14.4346 36.3859 13.8668 36.3952C13.6159 36.3991 13.4391 36.3079 13.3365 36.0684V28.3931L13.3335 28.3939ZM20.4943 32.0225C20.4943 32.8906 20.4943 33.7588 20.4936 34.6269C20.4936 34.7049 20.4921 34.7705 20.5902 34.7822C20.8666 34.8142 21.1415 34.8524 21.4179 34.8836C21.743 34.921 22.0711 34.9405 22.3939 34.992C22.8014 35.0575 23.2133 35.0747 23.6216 35.1324C23.9504 35.1784 24.2822 35.2081 24.6118 35.2471C24.9024 35.2814 25.1923 35.3173 25.4829 35.3524C25.8178 35.3929 26.1526 35.4304 26.4866 35.474C26.7481 35.5084 27.0065 35.5435 27.2664 35.4483C27.4978 35.3633 27.6859 35.2088 27.8881 35.0731C28.3495 34.7642 28.8184 34.4686 29.2791 34.1589C29.912 33.7331 30.539 33.2978 31.1711 32.8704C31.7172 32.5014 32.267 32.1395 32.813 31.7713C33.2138 31.5014 33.6085 31.2222 34.01 30.9539C34.6564 30.5217 35.3058 30.0951 35.9553 29.6668C36.2699 29.4601 36.4137 29.1825 36.3815 28.78C36.3313 28.1591 35.607 27.8892 35.1448 28.1996C34.9096 28.358 34.6639 28.4976 34.4212 28.6435C33.9546 28.9243 33.4864 29.2027 33.019 29.4828C32.5479 29.7651 32.079 30.0506 31.6048 30.3267C31.4992 30.3884 31.4745 30.4578 31.4962 30.5748C31.6018 31.152 31.4678 31.673 31.0738 32.0849C30.6056 32.5732 30.0244 32.6574 29.3982 32.4788C28.9907 32.3633 28.5825 32.251 28.175 32.1364C27.9008 32.0591 27.6274 31.9804 27.3533 31.9031C27.0686 31.8228 26.784 31.7432 26.4986 31.6652C26.19 31.5802 25.8784 31.5046 25.5721 31.4117C25.4327 31.3696 25.3196 31.2752 25.2882 31.1122C25.2193 30.7573 25.4694 30.528 25.8282 30.6247C26.199 30.7245 26.5668 30.8369 26.9368 30.9383C27.2889 31.035 27.6432 31.1184 27.9945 31.2175C28.5061 31.3618 29.0154 31.5147 29.5262 31.6637C29.7772 31.737 30.0266 31.7846 30.279 31.6598C30.5487 31.5264 30.7539 31.2347 30.7404 30.8501C30.7307 30.5678 30.4978 30.2378 30.2438 30.1442C29.715 29.95 29.1622 29.8462 28.6259 29.6778C28.1473 29.5272 27.6589 29.4133 27.1758 29.2792C26.8102 29.1778 26.4469 29.0694 26.0822 28.9648C25.7556 28.8712 25.4268 28.7878 25.1009 28.6895C24.8815 28.6232 24.656 28.528 24.4215 28.5545C23.9991 28.6029 23.5819 28.6957 23.1624 28.7667C22.7527 28.8361 22.3452 28.918 21.9392 28.9999C21.5078 29.0865 21.0718 29.1513 20.6426 29.2542C20.5093 29.2862 20.4898 29.3291 20.4906 29.4484C20.4943 30.3065 20.4921 31.1637 20.4928 32.0217L20.4943 32.0225ZM19.6869 32.2635H19.6876C19.6876 30.9328 19.6861 29.6013 19.6906 28.2706C19.6906 28.1411 19.6576 28.1068 19.5333 28.1076C18.585 28.1131 17.636 28.1131 16.6877 28.1076C16.5596 28.1076 16.5326 28.1497 16.5334 28.2753C16.5371 30.9375 16.5371 33.5989 16.5334 36.2611C16.5334 36.3703 16.5649 36.389 16.6585 36.389C17.6218 36.3859 18.5858 36.3851 19.549 36.389C19.6569 36.389 19.6906 36.364 19.6906 36.2424C19.6854 34.9163 19.6876 33.3485 19.6876 32.0225L19.6869 32.2635ZM14.138 32.2495H14.1372C14.1372 33.3204 14.1395 34.3906 14.1342 35.4616C14.1342 35.5637 14.1807 35.5575 14.2428 35.5583C14.6967 35.5598 15.1514 35.5583 15.6053 35.5637C15.7065 35.5653 15.7349 35.5271 15.7334 35.4272C15.7289 35.1207 15.7319 34.8142 15.7319 34.5076C15.7319 32.7042 15.7319 30.9 15.7327 29.0967C15.7327 29.0038 15.7409 28.9383 15.6098 28.9406C15.1709 28.9477 14.732 28.9406 14.293 28.9321C14.1717 28.9297 14.1357 28.9719 14.1365 29.0998C14.1417 30.1497 14.1395 31.1996 14.1395 32.2495H14.138Z" fill="#AD1818" stroke="#AD1818" stroke-width="0.416667"/>
<path d="M35.5556 20.8472C35.5556 21.2721 35.5556 21.697 35.5556 22.1226C35.5556 22.3473 35.4047 22.5001 35.1831 22.5008C34.6824 22.5008 34.1817 22.5008 33.6803 22.5027C33.6273 22.5027 33.5547 22.4742 33.5351 22.5607C33.5149 22.6517 33.4227 22.7318 33.5326 22.8367C33.8786 23.1675 34.2132 23.511 34.5574 23.8443C34.7758 24.0558 34.7739 24.2699 34.5491 24.4763C34.0573 24.9303 33.602 25.4209 33.1266 25.8912C32.9744 26.0415 32.8406 26.2114 32.6612 26.3332C32.54 26.4159 32.408 26.4172 32.2931 26.3225C32.026 26.1021 31.8082 25.8306 31.5563 25.5945C31.4193 25.4663 31.2886 25.3312 31.1604 25.1942C31.084 25.1128 31.0114 25.1576 30.935 25.1828C30.8573 25.2081 30.8415 25.2656 30.8409 25.3407C30.8396 25.8332 30.822 26.3256 30.8384 26.8175C30.8472 27.077 30.6553 27.2247 30.4267 27.2228C29.9721 27.2197 29.5175 27.2222 29.0629 27.2222C28.6884 27.2222 28.314 27.2234 27.939 27.2209C27.8392 27.2203 27.7388 27.2146 27.6485 27.1609C27.5475 27.101 27.4963 27.0201 27.497 26.8977C27.5001 26.3799 27.4976 25.8622 27.4989 25.3445C27.4989 25.2788 27.502 25.2144 27.4218 25.1948C27.3385 25.1746 27.2602 25.1121 27.1699 25.2043C26.8428 25.5396 26.5082 25.8679 26.1767 26.1987C26.1148 26.2606 26.0567 26.3294 25.9753 26.3635C25.8124 26.4317 25.6785 26.378 25.5592 26.2581C25.1286 25.8237 24.696 25.3912 24.2635 24.9581C24.1013 24.7958 23.9421 24.6298 23.7755 24.4725C23.5172 24.2282 23.5759 24.0546 23.7805 23.845C24.0886 23.5286 24.4005 23.2148 24.7188 22.908C24.8122 22.8183 24.8893 22.7489 24.8223 22.6049C24.7863 22.5279 24.7497 22.4982 24.6651 22.4989C24.16 22.5027 23.6549 22.4913 23.1504 22.5046C22.9066 22.5109 22.7778 22.3417 22.7778 22.1352C22.7778 21.2639 22.7785 20.3932 22.7778 19.5219C22.7778 19.3098 22.9439 19.1602 23.1251 19.1608C23.6302 19.1614 24.1347 19.157 24.6399 19.1583C24.7219 19.1583 24.7863 19.152 24.8217 19.0629C24.8571 18.9726 24.8659 18.9026 24.7844 18.823C24.4466 18.4928 24.1145 18.1556 23.7837 17.8191C23.7237 17.7585 23.6599 17.7004 23.6302 17.612C23.5886 17.487 23.6075 17.3828 23.7003 17.2907C24.0634 16.9282 24.4271 16.5671 24.7882 16.2028C25.0402 15.949 25.2902 15.6939 25.5377 15.4363C25.7606 15.204 25.9753 15.2519 26.1716 15.4565C26.3901 15.6844 26.6111 15.9105 26.8334 16.1359C26.9451 16.2495 27.067 16.3537 27.1737 16.4718C27.2753 16.5842 27.3612 16.4756 27.4515 16.4629C27.533 16.4516 27.497 16.3745 27.497 16.3272C27.4995 15.8183 27.4982 15.3088 27.4989 14.7999C27.4989 14.6054 27.6472 14.4476 27.8442 14.4469C28.7194 14.4444 29.5951 14.4444 30.4703 14.4469C30.6811 14.4476 30.822 14.601 30.8327 14.8113C30.8586 15.3283 30.8592 15.8454 30.8352 16.3625C30.8327 16.4219 30.8529 16.4503 30.9066 16.4774C31.0335 16.5412 31.1238 16.5223 31.2254 16.4143C31.5418 16.0784 31.8714 15.7539 32.1946 15.4243C32.3758 15.24 32.5848 15.2374 32.7635 15.4174C33.3665 16.0241 33.9695 16.6309 34.5731 17.237C34.7777 17.4428 34.7619 17.6228 34.5529 17.8235C34.1981 18.1645 33.8571 18.5193 33.5099 18.8678C33.4821 18.8956 33.4322 18.9196 33.4745 18.9682C33.5256 19.0269 33.496 19.1469 33.6115 19.1557C33.674 19.1608 33.7378 19.1595 33.8003 19.1595C34.2713 19.1614 34.743 19.1595 35.214 19.1671C35.4098 19.1703 35.5543 19.3344 35.555 19.5346C35.5556 19.9721 35.555 20.4096 35.555 20.8478L35.5556 20.8472ZM34.8737 20.8472C34.8737 20.5486 34.8699 20.2493 34.8762 19.9506C34.8781 19.8616 34.8484 19.8307 34.7645 19.8313C34.5289 19.8326 34.2934 19.8307 34.0573 19.8313C33.83 19.8313 33.6027 19.8357 33.3754 19.8338C33.1765 19.8319 33.0571 19.7562 33.0079 19.6103C32.9454 19.426 32.881 19.2435 32.7869 19.0711C32.6827 18.8811 32.7067 18.7333 32.8595 18.5774C33.1828 18.2478 33.5035 17.9164 33.8382 17.5994C33.9304 17.5123 33.8843 17.4807 33.8281 17.4245C33.429 17.0267 33.03 16.629 32.6322 16.2299C32.4762 16.074 32.4819 16.0753 32.3291 16.2318C32.0147 16.5545 31.6983 16.8758 31.377 17.1928C31.2879 17.2806 31.1749 17.3235 31.0461 17.2629C30.8472 17.1701 30.6502 17.069 30.4387 17.011C30.2347 16.9548 30.1666 16.8108 30.164 16.6296C30.1577 16.1712 30.1596 15.7122 30.1684 15.2538C30.1703 15.1509 30.1457 15.125 30.046 15.1257C29.4613 15.1295 28.876 15.1301 28.2906 15.1257C28.1757 15.1244 28.1505 15.1655 28.1517 15.2728C28.1568 15.74 28.1543 16.2072 28.1543 16.6744C28.1543 16.8234 28.0633 16.9485 27.9288 16.9971C27.7502 17.0621 27.5715 17.1252 27.4035 17.2181C27.2179 17.321 27.0556 17.3033 26.9249 17.1739C26.5934 16.8443 26.2626 16.5153 25.9355 16.1813C25.8692 16.1138 25.8212 16.0784 25.7492 16.1674C25.7107 16.2154 25.6627 16.2558 25.6192 16.2994C25.2391 16.6826 24.8602 17.0678 24.4776 17.4485C24.4226 17.5034 24.4163 17.5306 24.4795 17.583C24.5754 17.6625 24.6619 17.7541 24.7503 17.8425C24.9783 18.0691 25.2062 18.2958 25.431 18.5256C25.5724 18.6702 25.6621 18.823 25.5529 19.0383C25.4594 19.222 25.3843 19.4165 25.3218 19.6147C25.2782 19.7524 25.1134 19.8439 24.9669 19.8408C24.5041 19.8307 24.0413 19.8282 23.5785 19.8408C23.4837 19.8433 23.4509 19.8667 23.4515 19.9677C23.4566 20.5568 23.4566 21.1458 23.4522 21.7355C23.4522 21.8246 23.4755 21.8492 23.5639 21.8486C24.0394 21.8448 24.5148 21.8467 24.9909 21.8473C25.1608 21.8473 25.2782 21.9351 25.3325 22.1005C25.383 22.2545 25.4506 22.401 25.5137 22.55C25.6406 22.8486 25.6697 22.9149 25.4007 23.1789C25.097 23.4762 24.7895 23.7692 24.494 24.0754C24.4233 24.1487 24.4334 24.1834 24.4953 24.2446C24.9271 24.6727 25.3578 25.102 25.7846 25.5351C25.8465 25.5983 25.8679 25.5623 25.9096 25.52C26.2405 25.186 26.5726 24.8533 26.9053 24.5212C27.0247 24.4025 27.1907 24.3595 27.3031 24.4176C27.4989 24.5193 27.7015 24.6045 27.9099 24.6758C28.0608 24.727 28.1524 24.8539 28.1524 25.0136C28.1524 25.4853 28.1549 25.9563 28.1498 26.4279C28.1486 26.522 28.1719 26.5491 28.2679 26.5485C28.857 26.5441 29.4461 26.5435 30.0359 26.5485C30.1375 26.5491 30.1621 26.5201 30.1615 26.4203C30.1565 25.9657 30.1583 25.5112 30.1615 25.0572C30.1634 24.8387 30.2537 24.7289 30.4526 24.6582C30.6401 24.5919 30.8276 24.5231 31.007 24.4378C31.1635 24.3639 31.2942 24.3936 31.406 24.5047C31.7476 24.8438 32.0873 25.1854 32.4175 25.5358C32.4838 25.6059 32.504 25.5781 32.5495 25.5326C32.677 25.4051 32.809 25.2813 32.9359 25.1532C33.2434 24.8419 33.5446 24.5231 33.8597 24.2194C33.931 24.1505 33.8799 24.1291 33.8508 24.0994C33.5124 23.7635 33.1689 23.4327 32.8342 23.0936C32.7364 22.9939 32.6796 22.8707 32.7452 22.7198C32.8292 22.5266 32.9012 22.3278 32.982 22.1327C33.0862 21.8808 33.1361 21.8492 33.4126 21.8492C33.8502 21.8492 34.2884 21.8441 34.7259 21.8523C34.8516 21.8549 34.8787 21.8151 34.875 21.697C34.8661 21.4154 34.8724 21.1332 34.8724 20.851L34.8737 20.8472Z" fill="#AD1818" stroke="#AD1818" stroke-width="0.416667"/>
<path d="M29.1664 23.3335C27.7744 23.3606 26.7498 22.1712 26.6722 21.0077C26.5705 19.4869 27.8549 18.3016 29.197 18.3346C30.5414 18.367 31.6694 19.4474 31.6665 20.8664C31.6641 22.1765 30.5637 23.3547 29.1664 23.3335ZM31.0316 20.8311C31.0933 19.8525 30.154 18.8251 28.9377 18.9746C28.0754 19.0812 27.2424 19.7819 27.2976 20.933C27.3458 21.9369 28.0906 22.7453 29.2634 22.7135C30.2275 22.6876 31.0581 21.8756 31.0316 20.8311Z" fill="#AD1818" stroke="#AD1818" stroke-width="0.416667"/>
</g>
<defs>
<clipPath id="clip0_65_148">
<rect width="25" height="25" fill="white" transform="translate(12.5 12.5006)"/>
</clipPath>
</defs>
</svg>
